<svg width="36" height="37" viewBox="0 0 36 37" fill="none" xmlns="http://www.w3.org/2000/svg">
<rect y="0.858643" width="36" height="36" rx="8" fill="#001600" fill-opacity="0.15"/>
<path d="M22.61 22.0086C22.15 22.0086 21.77 21.6386 21.77 21.1786C21.77 20.7186 22.15 20.3586 22.61 20.3586C23.07 20.3586 23.45 20.7186 23.45 21.1786C23.45 21.6386 23.07 22.0086 22.61 22.0086ZM13.41 22.0086C12.95 22.0086 12.57 21.6386 12.57 21.1786C12.57 20.7186 12.95 20.3586 13.41 20.3586C13.87 20.3586 14.24 20.7186 14.24 21.1786C14.24 21.6386 13.87 22.0086 13.41 22.0086ZM22.91 16.9986L24.58 14.1186C24.67 13.9486 24.61 13.7386 24.45 13.6486C24.28 13.5486 24.07 13.6086 24 13.7786L22.29 16.6886C20.95 16.0786 19.5 15.7586 18 15.7686C16.47 15.7686 15 16.0986 13.73 16.6786L12.04 13.7686C11.95 13.5986 11.74 13.5386 11.57 13.6386C11.4 13.7286 11.35 13.9386 11.44 14.1086L13.1 16.9886C10.25 18.5486 8.29 21.4386 8 24.8586H28C27.72 21.4486 25.77 18.5586 22.91 16.9986Z" fill="#001600"/>
</svg>
