<svg width="36" height="37" viewBox="0 0 36 37" fill="none" xmlns="http://www.w3.org/2000/svg">
<rect y="0.0672607" width="36" height="36" rx="8" fill="#001600" fill-opacity="0.15"/>
<path d="M18.1 24.6173L18 24.7173L17.89 24.6173C13.14 20.3073 10 17.4573 10 14.5673C10 12.5673 11.5 11.0673 13.5 11.0673C15.04 11.0673 16.54 12.0673 17.07 13.4273H18.93C19.46 12.0673 20.96 11.0673 22.5 11.0673C24.5 11.0673 26 12.5673 26 14.5673C26 17.4573 22.86 20.3073 18.1 24.6173ZM22.5 9.06726C20.76 9.06726 19.09 9.87726 18 11.1473C16.91 9.87726 15.24 9.06726 13.5 9.06726C10.42 9.06726 8 11.4773 8 14.5673C8 18.3373 11.4 21.4273 16.55 26.0973L18 27.4173L19.45 26.0973C24.6 21.4273 28 18.3373 28 14.5673C28 11.4773 25.58 9.06726 22.5 9.06726Z" fill="black"/>
</svg>
