<svg width="36" height="37" viewBox="0 0 36 37" fill="none" xmlns="http://www.w3.org/2000/svg">
<rect y="0.0672607" width="36" height="36" rx="8" fill="#001600" fill-opacity="0.15"/>
<path d="M26 12.0673C26.58 12.0673 27.05 12.2673 27.42 12.6573C27.8 13.0673 28 13.5173 28 14.0673V25.0673C28 25.6173 27.8 26.0673 27.42 26.4773C27.05 26.8673 26.58 27.0673 26 27.0673H10C9.42 27.0673 8.95 26.8673 8.58 26.4773C8.2 26.0673 8 25.6173 8 25.0673V14.0673C8 13.5173 8.2 13.0673 8.58 12.6573C8.95 12.2673 9.42 12.0673 10 12.0673H14V10.0673C14 9.48726 14.2 9.01726 14.58 8.64726C14.95 8.26726 15.42 8.06726 16 8.06726H20C20.58 8.06726 21.05 8.26726 21.42 8.64726C21.8 9.01726 22 9.48726 22 10.0673V12.0673H26ZM10 14.0673V25.0673H26V14.0673H10ZM20 12.0673V10.0673H16V12.0673H20Z" fill="#001600"/>
</svg>
